<svg version="1.1" xmlns="http://www.w3.org/2000/svg" viewBox="0 0 516 162" width="516" height="162">
  <!-- svg-source:excalidraw -->
  
  <defs>
    <style>
      @font-face {
        font-family: "Virgil";
        src: url("https://unpkg.com/@excalidraw/excalidraw@0.12.0-32d8221/dist/excalidraw-assets/Virgil.woff2");
      }
      @font-face {
        font-family: "Cascadia";
        src: url("https://unpkg.com/@excalidraw/excalidraw@0.12.0-32d8221/dist/excalidraw-assets/Cascadia.woff2");
      }
    </style>
  </defs>
  <rect x="0" y="0" width="516" height="162" fill="transparent"></rect><g stroke-linecap="round" transform="translate(49 10) rotate(0 51.5 50)"><path d="M103 50 C103 52.18, 102.85 54.37, 102.56 56.53 C102.27 58.68, 101.83 60.84, 101.25 62.94 C100.67 65.04, 99.94 67.12, 99.08 69.13 C98.22 71.14, 97.22 73.12, 96.1 75 C94.98 76.88, 93.72 78.71, 92.36 80.44 C90.99 82.16, 89.5 83.82, 87.92 85.36 C86.33 86.89, 84.63 88.34, 82.85 89.67 C81.07 90.99, 79.19 92.21, 77.25 93.3 C75.31 94.39, 73.28 95.36, 71.21 96.19 C69.14 97.03, 66.99 97.73, 64.83 98.3 C62.66 98.86, 60.44 99.29, 58.22 99.57 C56 99.86, 53.74 100, 51.5 100 C49.26 100, 47 99.86, 44.78 99.57 C42.56 99.29, 40.34 98.86, 38.17 98.3 C36.01 97.73, 33.86 97.03, 31.79 96.19 C29.72 95.36, 27.69 94.39, 25.75 93.3 C23.81 92.21, 21.93 90.99, 20.15 89.67 C18.37 88.34, 16.67 86.89, 15.08 85.36 C13.5 83.82, 12.01 82.16, 10.64 80.44 C9.28 78.71, 8.02 76.88, 6.9 75 C5.78 73.12, 4.78 71.14, 3.92 69.13 C3.06 67.12, 2.33 65.04, 1.75 62.94 C1.17 60.84, 0.73 58.68, 0.44 56.53 C0.15 54.37, 0 52.18, 0 50 C0 47.82, 0.15 45.63, 0.44 43.47 C0.73 41.32, 1.17 39.16, 1.75 37.06 C2.33 34.96, 3.06 32.88, 3.92 30.87 C4.78 28.86, 5.78 26.88, 6.9 25 C8.02 23.12, 9.28 21.29, 10.64 19.56 C12.01 17.84, 13.5 16.18, 15.08 14.64 C16.67 13.11, 18.37 11.66, 20.15 10.33 C21.93 9.01, 23.81 7.79, 25.75 6.7 C27.69 5.61, 29.72 4.64, 31.79 3.81 C33.86 2.97, 36.01 2.27, 38.17 1.7 C40.34 1.14, 42.56 0.71, 44.78 0.43 C47 0.14, 49.26 0, 51.5 0 C53.74 0, 56 0.14, 58.22 0.43 C60.44 0.71, 62.66 1.14, 64.83 1.7 C66.99 2.27, 69.14 2.97, 71.21 3.81 C73.28 4.64, 75.31 5.61, 77.25 6.7 C79.19 7.79, 81.07 9.01, 82.85 10.33 C84.63 11.66, 86.33 13.11, 87.92 14.64 C89.5 16.18, 90.99 17.84, 92.36 19.56 C93.72 21.29, 94.98 23.12, 96.1 25 C97.22 26.88, 98.22 28.86, 99.08 30.87 C99.94 32.88, 100.67 34.96, 101.25 37.06 C101.83 39.16, 102.27 41.32, 102.56 43.47 C102.85 45.63, 102.93 48.91, 103 50 C103.07 51.09, 103.07 48.91, 103 50" stroke="none" stroke-width="0" fill="#12b886"></path><path d="M103 50 C103 52.18, 102.85 54.37, 102.56 56.53 C102.27 58.68, 101.83 60.84, 101.25 62.94 C100.67 65.04, 99.94 67.12, 99.08 69.13 C98.22 71.14, 97.22 73.12, 96.1 75 C94.98 76.88, 93.72 78.71, 92.36 80.44 C90.99 82.16, 89.5 83.82, 87.92 85.36 C86.33 86.89, 84.63 88.34, 82.85 89.67 C81.07 90.99, 79.19 92.21, 77.25 93.3 C75.31 94.39, 73.28 95.36, 71.21 96.19 C69.14 97.03, 66.99 97.73, 64.83 98.3 C62.66 98.86, 60.44 99.29, 58.22 99.57 C56 99.86, 53.74 100, 51.5 100 C49.26 100, 47 99.86, 44.78 99.57 C42.56 99.29, 40.34 98.86, 38.17 98.3 C36.01 97.73, 33.86 97.03, 31.79 96.19 C29.72 95.36, 27.69 94.39, 25.75 93.3 C23.81 92.21, 21.93 90.99, 20.15 89.67 C18.37 88.34, 16.67 86.89, 15.08 85.36 C13.5 83.82, 12.01 82.16, 10.64 80.44 C9.28 78.71, 8.02 76.88, 6.9 75 C5.78 73.12, 4.78 71.14, 3.92 69.13 C3.06 67.12, 2.33 65.04, 1.75 62.94 C1.17 60.84, 0.73 58.68, 0.44 56.53 C0.15 54.37, 0 52.18, 0 50 C0 47.82, 0.15 45.63, 0.44 43.47 C0.73 41.32, 1.17 39.16, 1.75 37.06 C2.33 34.96, 3.06 32.88, 3.92 30.87 C4.78 28.86, 5.78 26.88, 6.9 25 C8.02 23.12, 9.28 21.29, 10.64 19.56 C12.01 17.84, 13.5 16.18, 15.08 14.64 C16.67 13.11, 18.37 11.66, 20.15 10.33 C21.93 9.01, 23.81 7.79, 25.75 6.7 C27.69 5.61, 29.72 4.64, 31.79 3.81 C33.86 2.97, 36.01 2.27, 38.17 1.7 C40.34 1.14, 42.56 0.71, 44.78 0.43 C47 0.14, 49.26 0, 51.5 0 C53.74 0, 56 0.14, 58.22 0.43 C60.44 0.71, 62.66 1.14, 64.83 1.7 C66.99 2.27, 69.14 2.97, 71.21 3.81 C73.28 4.64, 75.31 5.61, 77.25 6.7 C79.19 7.79, 81.07 9.01, 82.85 10.33 C84.63 11.66, 86.33 13.11, 87.92 14.64 C89.5 16.18, 90.99 17.84, 92.36 19.56 C93.72 21.29, 94.98 23.12, 96.1 25 C97.22 26.88, 98.22 28.86, 99.08 30.87 C99.94 32.88, 100.67 34.96, 101.25 37.06 C101.83 39.16, 102.27 41.32, 102.56 43.47 C102.85 45.63, 102.93 48.91, 103 50 C103.07 51.09, 103.07 48.91, 103 50" stroke="#12b886" stroke-width="1" fill="none"></path></g><g stroke-linecap="round" transform="translate(84 49) rotate(0 51.5 50)"><path d="M103 50 C103 52.18, 102.85 54.37, 102.56 56.53 C102.27 58.68, 101.83 60.84, 101.25 62.94 C100.67 65.04, 99.94 67.12, 99.08 69.13 C98.22 71.14, 97.22 73.12, 96.1 75 C94.98 76.88, 93.72 78.71, 92.36 80.44 C90.99 82.16, 89.5 83.82, 87.92 85.36 C86.33 86.89, 84.63 88.34, 82.85 89.67 C81.07 90.99, 79.19 92.21, 77.25 93.3 C75.31 94.39, 73.28 95.36, 71.21 96.19 C69.14 97.03, 66.99 97.73, 64.83 98.3 C62.66 98.86, 60.44 99.29, 58.22 99.57 C56 99.86, 53.74 100, 51.5 100 C49.26 100, 47 99.86, 44.78 99.57 C42.56 99.29, 40.34 98.86, 38.17 98.3 C36.01 97.73, 33.86 97.03, 31.79 96.19 C29.72 95.36, 27.69 94.39, 25.75 93.3 C23.81 92.21, 21.93 90.99, 20.15 89.67 C18.37 88.34, 16.67 86.89, 15.08 85.36 C13.5 83.82, 12.01 82.16, 10.64 80.44 C9.28 78.71, 8.02 76.88, 6.9 75 C5.78 73.12, 4.78 71.14, 3.92 69.13 C3.06 67.12, 2.33 65.04, 1.75 62.94 C1.17 60.84, 0.73 58.68, 0.44 56.53 C0.15 54.37, 0 52.18, 0 50 C0 47.82, 0.15 45.63, 0.44 43.47 C0.73 41.32, 1.17 39.16, 1.75 37.06 C2.33 34.96, 3.06 32.88, 3.92 30.87 C4.78 28.86, 5.78 26.88, 6.9 25 C8.02 23.12, 9.28 21.29, 10.64 19.56 C12.01 17.84, 13.5 16.18, 15.08 14.64 C16.67 13.11, 18.37 11.66, 20.15 10.33 C21.93 9.01, 23.81 7.79, 25.75 6.7 C27.69 5.61, 29.72 4.64, 31.79 3.81 C33.86 2.97, 36.01 2.27, 38.17 1.7 C40.34 1.14, 42.56 0.71, 44.78 0.43 C47 0.14, 49.26 0, 51.5 0 C53.74 0, 56 0.14, 58.22 0.43 C60.44 0.71, 62.66 1.14, 64.83 1.7 C66.99 2.27, 69.14 2.97, 71.21 3.81 C73.28 4.64, 75.31 5.61, 77.25 6.7 C79.19 7.79, 81.07 9.01, 82.85 10.33 C84.63 11.66, 86.33 13.11, 87.92 14.64 C89.5 16.18, 90.99 17.84, 92.36 19.56 C93.72 21.29, 94.98 23.12, 96.1 25 C97.22 26.88, 98.22 28.86, 99.08 30.87 C99.94 32.88, 100.67 34.96, 101.25 37.06 C101.83 39.16, 102.27 41.32, 102.56 43.47 C102.85 45.63, 102.93 48.91, 103 50 C103.07 51.09, 103.07 48.91, 103 50" stroke="none" stroke-width="0" fill="#c92a2a"></path><path d="M103 50 C103 52.18, 102.85 54.37, 102.56 56.53 C102.27 58.68, 101.83 60.84, 101.25 62.94 C100.67 65.04, 99.94 67.12, 99.08 69.13 C98.22 71.14, 97.22 73.12, 96.1 75 C94.98 76.88, 93.72 78.71, 92.36 80.44 C90.99 82.16, 89.5 83.82, 87.92 85.36 C86.33 86.89, 84.63 88.34, 82.85 89.67 C81.07 90.99, 79.19 92.21, 77.25 93.3 C75.31 94.39, 73.28 95.36, 71.21 96.19 C69.14 97.03, 66.99 97.73, 64.83 98.3 C62.66 98.86, 60.44 99.29, 58.22 99.57 C56 99.86, 53.74 100, 51.5 100 C49.26 100, 47 99.86, 44.78 99.57 C42.56 99.29, 40.34 98.86, 38.17 98.3 C36.01 97.73, 33.86 97.03, 31.79 96.19 C29.72 95.36, 27.69 94.39, 25.75 93.3 C23.81 92.21, 21.93 90.99, 20.15 89.67 C18.37 88.34, 16.67 86.89, 15.08 85.36 C13.5 83.82, 12.01 82.16, 10.64 80.44 C9.28 78.71, 8.02 76.88, 6.9 75 C5.78 73.12, 4.78 71.14, 3.92 69.13 C3.06 67.12, 2.33 65.04, 1.75 62.94 C1.17 60.84, 0.73 58.68, 0.44 56.53 C0.15 54.37, 0 52.18, 0 50 C0 47.82, 0.15 45.63, 0.44 43.47 C0.73 41.32, 1.17 39.16, 1.75 37.06 C2.33 34.96, 3.06 32.88, 3.92 30.87 C4.78 28.86, 5.78 26.88, 6.9 25 C8.02 23.12, 9.28 21.29, 10.64 19.56 C12.01 17.84, 13.5 16.18, 15.08 14.64 C16.67 13.11, 18.37 11.66, 20.15 10.33 C21.93 9.01, 23.81 7.79, 25.75 6.7 C27.69 5.61, 29.72 4.64, 31.79 3.81 C33.86 2.97, 36.01 2.27, 38.17 1.7 C40.34 1.14, 42.56 0.71, 44.78 0.43 C47 0.14, 49.26 0, 51.5 0 C53.74 0, 56 0.14, 58.22 0.43 C60.44 0.71, 62.66 1.14, 64.83 1.7 C66.99 2.27, 69.14 2.97, 71.21 3.81 C73.28 4.64, 75.31 5.61, 77.25 6.7 C79.19 7.79, 81.07 9.01, 82.85 10.33 C84.63 11.66, 86.33 13.11, 87.92 14.64 C89.5 16.18, 90.99 17.84, 92.36 19.56 C93.72 21.29, 94.98 23.12, 96.1 25 C97.22 26.88, 98.22 28.86, 99.08 30.87 C99.94 32.88, 100.67 34.96, 101.25 37.06 C101.83 39.16, 102.27 41.32, 102.56 43.47 C102.85 45.63, 102.93 48.91, 103 50 C103.07 51.09, 103.07 48.91, 103 50" stroke="#c92a2a" stroke-width="1" fill="none"></path></g><g stroke-linecap="round" transform="translate(10 52) rotate(0 51.5 50)"><path d="M103 50 C103 52.18, 102.85 54.37, 102.56 56.53 C102.27 58.68, 101.83 60.84, 101.25 62.94 C100.67 65.04, 99.94 67.12, 99.08 69.13 C98.22 71.14, 97.22 73.12, 96.1 75 C94.98 76.88, 93.72 78.71, 92.36 80.44 C90.99 82.16, 89.5 83.82, 87.92 85.36 C86.33 86.89, 84.63 88.34, 82.85 89.67 C81.07 90.99, 79.19 92.21, 77.25 93.3 C75.31 94.39, 73.28 95.36, 71.21 96.19 C69.14 97.03, 66.99 97.73, 64.83 98.3 C62.66 98.86, 60.44 99.29, 58.22 99.57 C56 99.86, 53.74 100, 51.5 100 C49.26 100, 47 99.86, 44.78 99.57 C42.56 99.29, 40.34 98.86, 38.17 98.3 C36.01 97.73, 33.86 97.03, 31.79 96.19 C29.72 95.36, 27.69 94.39, 25.75 93.3 C23.81 92.21, 21.93 90.99, 20.15 89.67 C18.37 88.34, 16.67 86.89, 15.08 85.36 C13.5 83.82, 12.01 82.16, 10.64 80.44 C9.28 78.71, 8.02 76.88, 6.9 75 C5.78 73.12, 4.78 71.14, 3.92 69.13 C3.06 67.12, 2.33 65.04, 1.75 62.94 C1.17 60.84, 0.73 58.68, 0.44 56.53 C0.15 54.37, 0 52.18, 0 50 C0 47.82, 0.15 45.63, 0.44 43.47 C0.73 41.32, 1.17 39.16, 1.75 37.06 C2.33 34.96, 3.06 32.88, 3.92 30.87 C4.78 28.86, 5.78 26.88, 6.9 25 C8.02 23.12, 9.28 21.29, 10.64 19.56 C12.01 17.84, 13.5 16.18, 15.08 14.64 C16.67 13.11, 18.37 11.66, 20.15 10.33 C21.93 9.01, 23.81 7.79, 25.75 6.7 C27.69 5.61, 29.72 4.64, 31.79 3.81 C33.86 2.97, 36.01 2.27, 38.17 1.7 C40.34 1.14, 42.56 0.71, 44.78 0.43 C47 0.14, 49.26 0, 51.5 0 C53.74 0, 56 0.14, 58.22 0.43 C60.44 0.71, 62.66 1.14, 64.83 1.7 C66.99 2.27, 69.14 2.97, 71.21 3.81 C73.28 4.64, 75.31 5.61, 77.25 6.7 C79.19 7.79, 81.07 9.01, 82.85 10.33 C84.63 11.66, 86.33 13.11, 87.92 14.64 C89.5 16.18, 90.99 17.84, 92.36 19.56 C93.72 21.29, 94.98 23.12, 96.1 25 C97.22 26.88, 98.22 28.86, 99.08 30.87 C99.94 32.88, 100.67 34.96, 101.25 37.06 C101.83 39.16, 102.27 41.32, 102.56 43.47 C102.85 45.63, 102.93 48.91, 103 50 C103.07 51.09, 103.07 48.91, 103 50" stroke="none" stroke-width="0" fill="#364fc7"></path><path d="M103 50 C103 52.18, 102.85 54.37, 102.56 56.53 C102.27 58.68, 101.83 60.84, 101.25 62.94 C100.67 65.04, 99.94 67.12, 99.08 69.13 C98.22 71.14, 97.22 73.12, 96.1 75 C94.98 76.88, 93.72 78.71, 92.36 80.44 C90.99 82.16, 89.5 83.82, 87.92 85.36 C86.33 86.89, 84.63 88.34, 82.85 89.67 C81.07 90.99, 79.19 92.21, 77.25 93.3 C75.31 94.39, 73.28 95.36, 71.21 96.19 C69.14 97.03, 66.99 97.73, 64.83 98.3 C62.66 98.86, 60.44 99.29, 58.22 99.57 C56 99.86, 53.74 100, 51.5 100 C49.26 100, 47 99.86, 44.78 99.57 C42.56 99.29, 40.34 98.86, 38.17 98.3 C36.01 97.73, 33.86 97.03, 31.79 96.19 C29.72 95.36, 27.69 94.39, 25.75 93.3 C23.81 92.21, 21.93 90.99, 20.15 89.67 C18.37 88.34, 16.67 86.89, 15.08 85.36 C13.5 83.82, 12.01 82.16, 10.64 80.44 C9.28 78.71, 8.02 76.88, 6.9 75 C5.78 73.12, 4.78 71.14, 3.92 69.13 C3.06 67.12, 2.33 65.04, 1.75 62.94 C1.17 60.84, 0.73 58.68, 0.44 56.53 C0.15 54.37, 0 52.18, 0 50 C0 47.82, 0.15 45.63, 0.44 43.47 C0.73 41.32, 1.17 39.16, 1.75 37.06 C2.33 34.96, 3.06 32.88, 3.92 30.87 C4.78 28.86, 5.78 26.88, 6.9 25 C8.02 23.12, 9.28 21.29, 10.64 19.56 C12.01 17.84, 13.5 16.18, 15.08 14.64 C16.67 13.11, 18.37 11.66, 20.15 10.33 C21.93 9.01, 23.81 7.79, 25.75 6.7 C27.69 5.61, 29.72 4.64, 31.79 3.81 C33.86 2.97, 36.01 2.27, 38.17 1.7 C40.34 1.14, 42.56 0.71, 44.78 0.43 C47 0.14, 49.26 0, 51.5 0 C53.74 0, 56 0.14, 58.22 0.43 C60.44 0.71, 62.66 1.14, 64.83 1.7 C66.99 2.27, 69.14 2.97, 71.21 3.81 C73.28 4.64, 75.31 5.61, 77.25 6.7 C79.19 7.79, 81.07 9.01, 82.85 10.33 C84.63 11.66, 86.33 13.11, 87.92 14.64 C89.5 16.18, 90.99 17.84, 92.36 19.56 C93.72 21.29, 94.98 23.12, 96.1 25 C97.22 26.88, 98.22 28.86, 99.08 30.87 C99.94 32.88, 100.67 34.96, 101.25 37.06 C101.83 39.16, 102.27 41.32, 102.56 43.47 C102.85 45.63, 102.93 48.91, 103 50 C103.07 51.09, 103.07 48.91, 103 50" stroke="#364fc7" stroke-width="1" fill="none"></path></g><g transform="translate(89 78) rotate(0 46.5 21)"><text x="46.5" y="33" font-family="Helvetica, Segoe UI Emoji" font-size="36px" fill="#364fc7" text-anchor="middle" style="white-space: pre;" direction="ltr">S</text></g><g transform="translate(15 81) rotate(0 46.5 21)"><text x="46.5" y="33" font-family="Helvetica, Segoe UI Emoji" font-size="36px" fill="#12b886" text-anchor="middle" style="white-space: pre;" direction="ltr">M</text></g><g transform="translate(357 59.5) rotate(0 74.5 21.5)"><text x="0" y="35" font-family="Cascadia, Segoe UI Emoji" font-size="36px" fill="#c92a2a" text-anchor="start" style="white-space: pre;" direction="ltr">Support</text></g><g transform="translate(196 59.5) rotate(0 74.5 21.5)"><text x="0" y="35" font-family="Cascadia, Segoe UI Emoji" font-size="36px" fill="#12b886" text-anchor="start" style="white-space: pre;" direction="ltr">Medical</text></g></svg>